REM MD5 0b213cea69ca46f84055ea3b93da53e3
FILE "Saikyou no Shougi (Japan).bin" BINARY
  TRACK 01 MODE2/2352
    INDEX 01 00:00:00
  TRACK 02 AUDIO
    INDEX 00 00:22:32
    INDEX 01 00:24:32
  TRACK 03 AUDIO
    INDEX 00 01:41:14
    INDEX 01 01:43:14
  TRACK 04 AUDIO
    INDEX 00 02:52:01
    INDEX 01 02:54:01
  TRACK 05 AUDIO
    INDEX 00 04:01:56
    INDEX 01 04:03:56
  TRACK 06 AUDIO
    INDEX 00 05:39:55
    INDEX 01 05:41:55
REM LEADOUT 09:11:56
